<?xml version="1.0" encoding="UTF-8"?><svg id="a" xmlns="http://www.w3.org/2000/svg" viewBox="0 0 64 64"><defs><style>.b{fill:#174052;}.c{fill:#3dafdd;}.d{fill:#2a7292;}</style></defs><path class="c" d="M32,2c16.49,0,29.86,13.37,29.86,29.86v.27c0,16.49-13.37,29.86-29.86,29.86h0c-16.49,0-29.86-13.37-29.86-29.86v-.27C2.14,15.37,15.51,2,32,2h0M32,0C14.43,0,.14,14.29.14,31.86v.27c0,17.57,14.29,31.86,31.86,31.86s31.86-14.29,31.86-31.86v-.27C63.86,14.29,49.57,0,32,0h0Z"/><path class="d" d="M32,12c11,0,19.91,8.91,19.91,19.91v.18c0,11-8.91,19.91-19.91,19.91h0c-11,0-19.91-8.91-19.91-19.91v-.18c0-11,8.91-19.91,19.91-19.91h0M32,10c-12.08,0-21.91,9.83-21.91,21.91v.18c0,12.08,9.83,21.91,21.91,21.91s21.91-9.83,21.91-21.91v-.18c0-12.08-9.83-21.91-21.91-21.91h0Z"/><path class="b" d="M32,22c5.5,0,9.95,4.46,9.95,9.95v.09c0,5.5-4.46,9.95-9.95,9.95s-9.95-4.46-9.95-9.95v-.09c0-5.5,4.46-9.95,9.95-9.95M32,20c-6.59,0-11.95,5.36-11.95,11.95v.09c0,6.59,5.36,11.95,11.95,11.95s11.95-5.36,11.95-11.95v-.09c0-6.59-5.36-11.95-11.95-11.95h0Z"/></svg>